<?xml version="1.0" encoding="UTF-8" standalone="no"?>
<!-- Created with Inkscape (http://www.inkscape.org/) -->

<svg
   width="512"
   height="512"
   viewBox="0 0 135.46666 135.46667"
   version="1.1"
   id="svg5"
   inkscape:version="1.2-dev (9ee32be, 2021-06-19)"
   sodipodi:docname="Folder Search icon.svg"
   xmlns:inkscape="http://www.inkscape.org/namespaces/inkscape"
   xmlns:sodipodi="http://sodipodi.sourceforge.net/DTD/sodipodi-0.dtd"
   xmlns="http://www.w3.org/2000/svg"
   xmlns:svg="http://www.w3.org/2000/svg">
  <sodipodi:namedview
     id="namedview7"
     pagecolor="#ffffff"
     bordercolor="#666666"
     borderopacity="1.0"
     inkscape:pageshadow="2"
     inkscape:pageopacity="0.0"
     inkscape:pagecheckerboard="0"
     inkscape:document-units="mm"
     showgrid="false"
     inkscape:zoom="0.58243879"
     inkscape:cx="444.68192"
     inkscape:cy="601.77997"
     inkscape:window-width="2560"
     inkscape:window-height="1323"
     inkscape:window-x="1920"
     inkscape:window-y="25"
     inkscape:window-maximized="1"
     inkscape:current-layer="layer1"
     units="px" />
  <defs
     id="defs2" />
  <g
     inkscape:label="Layer 1"
     inkscape:groupmode="layer"
     id="layer1">
    <path
       style="fill:#ff6600;stroke-width:1.74235"
       id="path39"
       d="" />
    <path
       style="fill:#ff6600;stroke-width:0.142573"
       d="m 97.114956,111.38072 c -1.943316,-0.42221 -2.121984,-0.57036 -9.375978,-7.77426 l -6.700944,-6.654673 -0.570296,0.346628 c -1.256019,0.763398 -4.370471,2.196154 -5.938392,2.731875 -3.354142,1.14601 -6.385634,1.63959 -10.029753,1.63304 -8.378874,-0.0152 -16.116639,-3.250679 -22.098803,-9.240722 -4.782371,-4.788684 -7.822277,-10.879711 -8.859845,-17.75238 -0.337146,-2.23321 -0.336739,-6.468449 8.09e-4,-8.696957 0.913207,-6.028537 3.295766,-11.322924 7.185916,-15.968148 4.112402,-4.91062 10.130056,-8.635859 16.429388,-10.170638 3.691701,-0.899455 8.343667,-1.140805 11.833538,-0.613944 11.362807,1.715446 20.742801,9.135023 24.874134,19.675474 1.408441,3.593454 2.111903,7.339195 2.119,11.283158 0.0068,3.644133 -0.487016,6.675624 -1.633026,10.029756 -0.535716,1.567931 -1.968472,4.682374 -2.731873,5.938402 l -0.346628,0.570297 6.662714,6.700915 c 6.297163,6.333271 6.691083,6.759597 7.179663,7.770227 1.03252,2.13575 1.0112,4.25533 -0.0644,6.40432 -0.96604,1.93009 -2.81104,3.34266 -4.96128,3.79842 -1.150334,0.24384 -1.813016,0.24144 -2.973973,-0.0113 z M 68.356044,91.777762 c 4.410856,-0.754073 8.4873,-2.869964 11.67973,-6.062395 7.328244,-7.328214 8.472796,-18.874711 2.725712,-27.497639 -3.21045,-4.816978 -8.026308,-8.0375 -13.916842,-9.306681 -1.730626,-0.372875 -6.674345,-0.372875 -8.404962,0 -2.914385,0.627937 -5.494793,1.689846 -7.77364,3.199093 -4.926727,3.262867 -8.150625,8.049928 -9.434588,14.009131 -0.372878,1.730617 -0.372878,6.67435 0,8.404967 1.702278,7.900684 7.054933,13.97089 14.518583,16.46486 3.229513,1.079137 7.186011,1.373339 10.606007,0.788664 z"
       id="path471" />
    <path
       style="fill:#ff6600;stroke-width:0.2555"
       d="m 15.224128,123.80888 c -2.860848,-0.27677 -5.116347,-1.46303 -7.7368101,-4.0691 -2.4798812,-2.46627 -3.6591487,-4.65523 -4.1302029,-7.6665 -0.2753128,-1.75998 -0.3250061,-10.62202 -0.2621024,-46.739215 0,0 -0.042296,-29.457797 0.07764,-44.567464 C 3.9742481,16.02819 7.778542,12.081542 11.37001,10.457968 14.415041,8.9208425 14.483043,9.3272354 30.251066,9.1761852 L 44.709715,9.0376694 c 1.948165,-0.023852 3.680306,0.8467001 5.294677,1.6641216 3.707493,1.828749 6.83308,6.389921 7.672315,11.307599 l 0.30522,1.7885 1.772527,0.159896 c 0.974893,0.08797 11.315471,0.185051 22.979065,0.215798 11.663594,0.03071 25.230671,0.138545 30.149051,0.239525 8.82522,0.181199 6.77581,0.04268 8.70335,0.208218 7.85182,0.800831 10.60002,5.852776 11.40247,10.717632 l 0.007,18.09698 c 0.009,22.8247 0.0992,57.431801 -0.31504,59.403841 -0.75786,3.6075 -4.15957,7.85678 -7.82509,9.7748 -1.50832,0.78923 -2.23854,0.99821 -4.21577,1.20647 -2.88238,0.30361 -102.269971,0.29213 -105.415383,-0.0122 z m 107.878442,-13.14086 0.0664,-36.558557 0.0664,-36.558558 c -0.17073,-1.140022 -1.61409,-3.284912 -3.25508,-3.411328 l -52.006424,0.06692 -52.006406,0.06692 -0.981817,0.793588 c -0.540003,0.436474 -1.211772,1.183816 -1.492821,1.660751 -0.504572,0.85626 -0.511004,1.326552 -0.511004,37.403722 v 36.536552 c 0.370154,1.79841 2.167002,3.13938 3.682412,3.46871 0.504128,0.0995 23.93049,0.16462 52.058581,0.14465 l 51.141989,-0.0363 c 1.39774,-0.19396 3.01138,-2.16862 3.23769,-3.57706 z"
       id="path728"
       sodipodi:nodetypes="ssssccsccscsssccssssssccccccsssccscc" />
  </g>
</svg>
