<?xml version="1.0" encoding="UTF-8" standalone="no"?>
<!-- Created with Inkscape (http://www.inkscape.org/) -->

<svg
   width="512"
   height="512"
   viewBox="0 0 135.46666 135.46667"
   version="1.1"
   id="svg5"
   inkscape:version="1.2-dev (9ee32be, 2021-06-19)"
   sodipodi:docname="Search Icon.svg"
   inkscape:export-filename="/Users/dan/bitmap.png"
   inkscape:export-xdpi="6"
   inkscape:export-ydpi="6"
   xmlns:inkscape="http://www.inkscape.org/namespaces/inkscape"
   xmlns:sodipodi="http://sodipodi.sourceforge.net/DTD/sodipodi-0.dtd"
   xmlns="http://www.w3.org/2000/svg"
   xmlns:svg="http://www.w3.org/2000/svg">
  <sodipodi:namedview
     id="namedview7"
     pagecolor="#ffffff"
     bordercolor="#666666"
     borderopacity="1.0"
     inkscape:pageshadow="2"
     inkscape:pageopacity="0.0"
     inkscape:pagecheckerboard="0"
     inkscape:document-units="mm"
     showgrid="false"
     inkscape:zoom="0.58243879"
     inkscape:cx="444.68192"
     inkscape:cy="601.77997"
     inkscape:window-width="2560"
     inkscape:window-height="1323"
     inkscape:window-x="1920"
     inkscape:window-y="25"
     inkscape:window-maximized="1"
     inkscape:current-layer="layer1"
     units="px" />
  <defs
     id="defs2" />
  <g
     inkscape:label="Layer 1"
     inkscape:groupmode="layer"
     id="layer1">
    <path
       style="fill:#ff6600;stroke-width:1.74235"
       id="path39"
       d="" />
    <path
       style="fill:#ff6600;stroke-width:0.231764"
       d="m 114.33473,127.61745 c -3.15902,-0.68634 -3.44946,-0.92717 -15.241502,-12.63772 L 88.200274,104.162 87.27321,104.72547 c -2.041766,1.24097 -7.104573,3.57003 -9.653362,4.44089 -5.452443,1.86294 -10.38039,2.6653 -16.304215,2.65465 C 47.695061,111.7963 35.116666,106.53675 25.39215,96.799413 17.617998,89.015001 12.67637,79.113518 10.989714,67.941411 10.441654,64.311138 10.442316,57.426397 10.991029,53.803768 12.475526,44.003869 16.34858,35.397393 22.672352,27.846186 29.357411,19.863556 39.139619,13.807863 49.379718,11.312949 55.380892,9.8508075 62.943058,9.4584726 68.61614,10.31493 c 18.471208,2.788605 33.7192,14.849758 40.43507,31.984157 2.28954,5.841464 3.43308,11.930485 3.44462,18.341732 0.011,5.923848 -0.79169,10.851795 -2.65463,16.304221 -0.87085,2.548805 -3.19993,7.611596 -4.44091,9.653377 l -0.56348,0.927066 10.83084,10.892907 c 10.23657,10.29529 10.87692,10.98832 11.67115,12.63118 1.67844,3.47185 1.6438,6.9174 -0.10469,10.41076 -1.57038,3.13754 -4.56958,5.43379 -8.06498,6.17467 -1.86997,0.39637 -2.94721,0.39248 -4.83445,-0.0183 z M 67.584622,95.751161 c 7.170221,-1.225809 13.796827,-4.66537 18.986393,-9.854938 11.912683,-11.912635 13.773255,-30.682447 4.430877,-44.69975 -5.21886,-7.830406 -13.047446,-13.065639 -22.62301,-15.128801 -2.813279,-0.606139 -10.849715,-0.606139 -13.662979,0 -4.737581,1.020766 -8.932254,2.74699 -12.636714,5.200399 -8.008812,5.304067 -13.249532,13.085842 -15.336724,22.773032 -0.606144,2.813265 -0.606144,10.849724 0,13.662989 2.767198,12.843233 11.468394,22.710868 23.60119,26.765029 5.249849,1.754228 11.681472,2.232479 17.240967,1.28204 z"
       id="path471" />
  </g>
</svg>
