<?xml version="1.0" encoding="UTF-8" standalone="no"?>
<!-- Created with Inkscape (http://www.inkscape.org/) -->

<svg
   width="512"
   height="512"
   viewBox="0 0 135.46666 135.46667"
   version="1.1"
   id="svg5"
   inkscape:version="1.2-dev (9ee32be, 2021-06-19)"
   sodipodi:docname="Search Icon.svg"
   inkscape:export-filename="/Users/dan/Dropbox/Dan/Programming/MacOS/Pro7-Media-Sweeper (Mac)/Pro7 Media Sweeper/search.png"
   inkscape:export-xdpi="6.0000005"
   inkscape:export-ydpi="6.0000005"
   xmlns:inkscape="http://www.inkscape.org/namespaces/inkscape"
   xmlns:sodipodi="http://sodipodi.sourceforge.net/DTD/sodipodi-0.dtd"
   xmlns="http://www.w3.org/2000/svg"
   xmlns:svg="http://www.w3.org/2000/svg">
  <sodipodi:namedview
     id="namedview7"
     pagecolor="#ffffff"
     bordercolor="#666666"
     borderopacity="1.0"
     inkscape:pageshadow="2"
     inkscape:pageopacity="0.0"
     inkscape:pagecheckerboard="0"
     inkscape:document-units="mm"
     showgrid="false"
     inkscape:zoom="0.58243879"
     inkscape:cx="324.49762"
     inkscape:cy="639.55218"
     inkscape:window-width="1316"
     inkscape:window-height="1027"
     inkscape:window-x="397"
     inkscape:window-y="25"
     inkscape:window-maximized="0"
     inkscape:current-layer="layer1"
     units="px" />
  <defs
     id="defs2" />
  <g
     inkscape:label="Layer 1"
     inkscape:groupmode="layer"
     id="layer1">
    <path
       style="fill:#ff6600;stroke-width:1.74235"
       id="path39"
       d="" />
    <path
       style="fill:#1f7de0;fill-opacity:1;stroke-width:0.227305"
       d="m 113.02113,126.5651 c -3.09825,-0.67314 -3.3831,-0.90934 -14.948271,-12.39459 L 87.38947,103.5609 l -0.909229,0.55263 c -2.002485,1.21709 -6.967891,3.50134 -9.467645,4.35545 -5.347546,1.8271 -10.180686,2.61402 -15.990545,2.60358 -13.358531,-0.0242 -25.694936,-5.1826 -35.232366,-14.7326 -7.624588,-7.634651 -12.471146,-17.345643 -14.125353,-28.302814 -0.537516,-3.560432 -0.536867,-10.31272 0.0013,-13.865655 1.455938,-9.611363 5.25448,-18.052262 11.456591,-25.458195 6.556448,-7.829055 16.15046,-13.768245 26.193554,-16.215161 5.88572,-1.434012 13.302401,-1.818799 18.866341,-0.978818 18.115848,2.734956 33.070482,14.564069 39.657142,31.368827 2.2455,5.729082 3.36704,11.700959 3.37835,17.988863 0.0108,5.809881 -0.77645,10.643021 -2.60355,15.99055 -0.8541,2.49977 -3.13837,7.46516 -4.35548,9.46766 l -0.55264,0.909231 10.62247,10.683343 c 10.03964,10.097219 10.66767,10.776909 11.44662,12.388169 1.64615,3.40505 1.61217,6.78432 -0.10268,10.21047 -1.54017,3.07718 -4.48167,5.32925 -7.90982,6.05588 -1.83399,0.38874 -2.89051,0.38493 -4.74144,-0.0179 z M 67.170434,95.311875 C 74.20271,94.109649 80.701829,90.73626 85.791555,85.646532 97.475055,73.96308 99.299826,55.554372 90.137188,41.806742 85.018732,34.126982 77.340757,28.992468 67.949413,26.968998 c -2.759155,-0.594478 -10.640982,-0.594478 -13.400122,0 -4.646437,1.001128 -8.76041,2.694142 -12.393602,5.100351 -7.854734,5.202024 -12.99463,12.834089 -15.041667,22.334911 -0.594483,2.759142 -0.594483,10.640991 0,13.400132 2.713961,12.596148 11.247758,22.273943 23.147137,26.250108 5.148849,1.720479 11.456736,2.189529 16.909275,1.257375 z"
       id="path471"
       inkscape:export-filename="/Users/dan/Dropbox/Dan/Programming/MacOS/Pro7-Media-Sweeper (Mac)/Pro7 Media Sweeper/search.png"
       inkscape:export-xdpi="7.0195827"
       inkscape:export-ydpi="7.0195827" />
  </g>
</svg>
